# xmcd CD database file
#
# Track frame offsets:
#	150
#	16455
#	34527
#	73087
#	92047
#	113672
#	133685
#	149572
#	174167
#	189447
#	206895
#	226750
#	244227
#	267837
#	280025
#	299155
#	317917
#
# Disc length: 4469 seconds
#
# Revision: 0
# Processed by: cddbd v1.5.1PL0 Copyright (c) Steve Scherf et al.
# Submitted via: CDex 1.51
#
DISCID=00117311
DTITLE=Various Artist - 山ＭＡＸ
DYEAR=1998
DGENRE=INTERNATIONAL(POPS)
TTITLE0=WELCOME TO THE FANCLUB OF LOVE - MEJA
TTITLE1=ONE WEEK - LISA LINDBERGH
TTITLE2=BLOW YOUR MIND - JAMIROQUAI
TTITLE3=KISS OF LIFE - SADE
TTITLE4=LETE - CLEMENTINE
TTITLE5=A ROSE IN THE WIND - ANGGUN
TTITLE6=GREAT THINGS - ECHOBELLY
TTITLE7=GOOD ENOUGH(DANCE REMIX) - CYNDI LAUPER
TTITLE8=WALK LIKE AN EGYPTIAN - BANGLES
TTITLE9=GOT IT GOIN' ON - HUMAN NATURE
TTITLE10=THE KING OF ROCK'N' ROLL - PREFAB SPROUT
TTITLE11=COPERNICUS - BASIA
TTITLE12=SUN OF '79 - DES'REE
TTITLE13=A THOUSAND TIMES - SOPHIE ZELMANI
TTITLE14=WAITING FOR YOU - THE TRAMPOLINES
TTITLE15=GOING DOWN SOUTH - IDHA
TTITLE16=HIGHER - GLORIA ESTEFAN
EXTD=YEAR: 1998
EXTT0=
EXTT1=
EXTT2=
EXTT3=
EXTT4=
EXTT5=
EXTT6=
EXTT7=
EXTT8=
EXTT9=
EXTT10=
EXTT11=
EXTT12=
EXTT13=
EXTT14=
EXTT15=
EXTT16=
PLAYORDER=
